HIERARCHY
ROOT Hips
{
	OFFSET 0.000000 89.005402 0.000000
	CHANNELS 6 Xposition Yposition Zposition Xrotation Yrotation Zrotation
	JOINT Spine
	{
		OFFSET 0.116900 10.681000 0.373400
		CHANNELS 3 Xrotation Yrotation Zrotation
		JOINT Spine1
		{
			OFFSET 0.000000 13.840401 0.053500
			CHANNELS 3 Xrotation Yrotation Zrotation
			JOINT Spine2
			{
				OFFSET 0.000000 14.712700 -0.366200
				CHANNELS 3 Xrotation Yrotation Zrotation
				JOINT Neck
				{
					OFFSET 0.000000 35.415497 -3.314200
					CHANNELS 3 Xrotation Yrotation Zrotation
					JOINT Head
					{
						OFFSET 0.000000 16.899200 1.218300
						CHANNELS 3 Xrotation Yrotation Zrotation
						JOINT HeadTop_End
						{
							OFFSET 0.000000 22.206207 2.192500
							CHANNELS 3 Xrotation Yrotation Zrotation
							End Site
							{
								OFFSET 0.000000 22.314178 0.000000
							}
						}
					}
				}
				JOINT LeftShoulder
				{
					OFFSET 12.896400 26.716293 -4.548400
					CHANNELS 3 Xrotation Yrotation Zrotation
					JOINT LeftArm
					{
						OFFSET 19.027000 -4.857010 -1.718400
						CHANNELS 3 Xrotation Yrotation Zrotation
						JOINT LeftForeArm
						{
							OFFSET 24.179897 0.000000 0.000000
							CHANNELS 3 Xrotation Yrotation Zrotation
							JOINT LeftHand
							{
								OFFSET 27.156403 0.000000 0.000000
								CHANNELS 3 Xrotation Yrotation Zrotation
								JOINT LeftHandIndex1
								{
									OFFSET 16.441200 0.000000 0.000000
									CHANNELS 3 Xrotation Yrotation Zrotation
									JOINT LeftHandIndex2
									{
										OFFSET 4.821899 0.000000 0.000000
										CHANNELS 3 Xrotation Yrotation Zrotation
										JOINT LeftHandIndex3
										{
											OFFSET 6.386497 0.000000 0.000000
											CHANNELS 3 Xrotation Yrotation Zrotation
											JOINT LeftHandIndex4
											{
												OFFSET 5.188988 0.000000 0.000000
												CHANNELS 3 Xrotation Yrotation Zrotation
												End Site
												{
													OFFSET -0.178703 5.185913 0.000177
												}
											}
										}
									}
								}
								JOINT LeftHandThumb1
								{
									OFFSET 6.534897 -5.032593 5.900300
									CHANNELS 3 Xrotation Yrotation Zrotation
									JOINT LeftHandThumb2
									{
										OFFSET 3.818176 -2.204422 2.204423
										CHANNELS 3 Xrotation Yrotation Zrotation
										JOINT LeftHandThumb3
										{
											OFFSET 3.252098 -1.877594 1.877601
											CHANNELS 3 Xrotation Yrotation Zrotation
											JOINT LeftHandThumb4
											{
												OFFSET 5.251778 -3.032120 3.032117
												CHANNELS 3 Xrotation Yrotation Zrotation
												End Site
												{
													OFFSET 0.000023 6.780014 0.000000
												}
											}
										}
									}
								}
							}
						}
					}
				}
				JOINT RightShoulder
				{
					OFFSET -12.896300 26.716293 -4.548400
					CHANNELS 3 Xrotation Yrotation Zrotation
					JOINT RightArm
					{
						OFFSET -19.027000 -4.857010 -1.718400
						CHANNELS 3 Xrotation Yrotation Zrotation
						JOINT RightForeArm
						{
							OFFSET -24.179897 0.000000 0.000000
							CHANNELS 3 Xrotation Yrotation Zrotation
							JOINT RightHand
							{
								OFFSET -27.156403 0.000000 0.000000
								CHANNELS 3 Xrotation Yrotation Zrotation
								JOINT RightHandThumb1
								{
									OFFSET -6.591202 -4.852203 5.988100
									CHANNELS 3 Xrotation Yrotation Zrotation
									JOINT RightHandThumb2
									{
										OFFSET -3.818176 -2.204422 2.204423
										CHANNELS 3 Xrotation Yrotation Zrotation
										JOINT RightHandThumb3
										{
											OFFSET -3.252098 -1.877594 1.877601
											CHANNELS 3 Xrotation Yrotation Zrotation
											JOINT RightHandThumb4
											{
												OFFSET -5.251778 -3.032120 3.032117
												CHANNELS 3 Xrotation Yrotation Zrotation
												End Site
												{
													OFFSET -0.000023 6.780014 0.000000
												}
											}
										}
									}
								}
								JOINT RightHandIndex1
								{
									OFFSET -16.029404 0.000000 0.000000
									CHANNELS 3 Xrotation Yrotation Zrotation
									JOINT RightHandIndex2
									{
										OFFSET -5.213303 0.000000 0.000000
										CHANNELS 3 Xrotation Yrotation Zrotation
										JOINT RightHandIndex3
										{
											OFFSET -6.386528 0.000000 0.000000
											CHANNELS 3 Xrotation Yrotation Zrotation
											JOINT RightHandIndex4
											{
												OFFSET -5.189026 0.000000 0.000000
												CHANNELS 3 Xrotation Yrotation Zrotation
												End Site
												{
													OFFSET 0.236702 5.183624 0.001972
												}
											}
										}
									}
								}
							}
						}
					}
				}
			}
		}
	}
	JOINT LeftUpLeg
	{
		OFFSET 14.073000 -7.904099 -1.463000
		CHANNELS 3 Xrotation Yrotation Zrotation
		JOINT LeftLeg
		{
			OFFSET -0.109806 -34.073280 4.093200
			CHANNELS 3 Xrotation Yrotation Zrotation
			JOINT LeftFoot
			{
				OFFSET 0.109806 -29.899420 -6.319000
				CHANNELS 3 Xrotation Yrotation Zrotation
				JOINT LeftToeBase
				{
					OFFSET 1.551100 -14.988700 20.535801
					CHANNELS 3 Xrotation Yrotation Zrotation
					JOINT LeftToe_End
					{
						OFFSET 0.221200 0.570800 13.248301
						CHANNELS 3 Xrotation Yrotation Zrotation
						End Site
						{
							OFFSET 0.000000 13.262435 0.000000
						}
					}
				}
			}
		}
	}
	JOINT RightUpLeg
	{
		OFFSET -13.839300 -7.904099 -1.463000
		CHANNELS 3 Xrotation Yrotation Zrotation
		JOINT RightLeg
		{
			OFFSET 0.109694 -34.073219 4.093300
			CHANNELS 3 Xrotation Yrotation Zrotation
			JOINT RightFoot
			{
				OFFSET -0.109694 -29.899384 -6.319200
				CHANNELS 3 Xrotation Yrotation Zrotation
				JOINT RightToeBase
				{
					OFFSET -1.551100 -14.988700 20.535801
					CHANNELS 3 Xrotation Yrotation Zrotation
					JOINT RightToe_End
					{
						OFFSET -0.221200 0.570900 13.248299
						CHANNELS 3 Xrotation Yrotation Zrotation
						End Site
						{
							OFFSET 0.000000 13.262440 0.000000
						}
					}
				}
			}
		}
	}
}
MOTION
Frames: 8
Frame Time: 0.033333
0.066222 55.684776 -24.222422 -3.589550 -2.224491 -1.097859 0.409659 0.224682 0.541334 0.678892 0.498397 1.092167 0.679355 0.498906 1.091676 1.281096 0.210935 -0.451601 -12.858742 0.573485 0.063866 0.000001 0.000000 -0.000000 0.616670 5.511413 -10.036291 13.489321 -36.219144 -59.125177 0.000010 -20.678024 -0.000003 -7.633565 17.829186 -12.675193 -2.070546 -0.130507 -39.172064 0.432994 2.407481 -20.388668 0.000001 0.000002 -0.000000 -0.000000 0.000003 -0.000000 -1.461725 3.868713 4.842456 14.716006 36.915670 -9.163687 8.823014 23.955299 -2.754055 -0.000000 0.000002 0.000003 0.735285 -4.430280 11.810740 16.100680 27.576909 53.677087 -0.000002 25.121518 -0.000013 -7.294025 -0.482810 6.943973 -11.076248 -3.038395 -7.241344 11.098998 -20.840473 2.639019 0.751227 -2.070220 -4.656227 -0.000000 -0.000001 -0.000002 -4.137025 3.499990 36.341623 0.491301 -2.571791 21.627242 0.005467 -0.276204 2.267088 -0.000003 0.000001 0.000000 -70.477655 -6.416293 19.972940 93.492319 5.852458 -0.460117 -15.223761 2.321615 -11.528940 -0.000031 0.000002 -0.000001 -0.000000 -0.000000 -0.000000 -72.834877 0.446543 -14.124561 91.464825 -7.495393 -2.317785 -13.132899 -3.592814 8.716253 -0.000029 0.000005 0.000001 0.000000 0.000000 0.000000 
0.065016 55.687172 -24.224106 -3.602832 -2.242140 -1.093843 0.405114 0.222393 0.544584 0.671336 0.494513 1.098175 0.671799 0.495020 1.097691 1.300637 0.208796 -0.462642 -12.777660 0.555634 0.053733 0.000001 -0.000000 -0.000000 0.618849 5.519255 -10.064495 13.395831 -36.149425 -59.161125 0.000000 -20.538138 -0.000003 -7.502818 17.788599 -12.812421 -2.077953 -0.138158 -39.182476 0.432998 2.407508 -20.388775 0.000001 -0.000001 -0.000008 -0.000002 0.000002 0.000002 -1.470172 3.855402 4.824795 14.720316 36.919713 -9.167253 8.814445 23.940008 -2.749140 0.000001 0.000002 0.000003 0.733352 -4.431373 11.783348 15.933166 27.500971 53.812646 0.000004 24.975878 -0.000004 -7.149753 -0.506163 7.025455 -11.053890 -3.077262 -7.246502 11.099004 -20.840480 2.638995 0.750385 -2.067511 -4.656455 0.000000 -0.000000 0.000000 -4.123218 3.474180 36.363005 0.490415 -2.569541 21.607401 0.005451 -0.275897 2.264541 -0.000000 -0.000000 0.000002 -70.447357 -6.421412 19.989196 93.491909 5.849786 -0.474666 -15.230654 2.324447 -11.534144 -0.000047 0.000005 -0.000004 0.000000 -0.000000 -0.000000 -72.829706 0.435617 -14.134866 91.459040 -7.508989 -2.313857 -13.130566 -3.547245 8.698616 -0.000050 -0.000002 -0.000000 -0.000000 0.000000 0.000000 
0.064492 55.684921 -24.225376 -3.615634 -2.252953 -1.091711 0.407865 0.219534 0.541966 0.675618 0.489482 1.094780 0.676064 0.490009 1.094296 1.283971 0.196001 -0.432413 -12.732694 0.533754 0.014441 -0.000000 0.000000 -0.000000 0.616000 5.512757 -10.027671 13.308909 -36.095723 -59.251215 -0.000004 -20.449861 -0.000014 -7.458398 17.658491 -12.738599 -2.078771 -0.140168 -39.176295 0.432969 2.407425 -20.388016 -0.000000 -0.000003 -0.000000 0.000002 0.000002 0.000001 -1.466080 3.860768 4.862942 14.726072 36.925089 -9.172023 8.824313 23.957710 -2.754778 -0.000001 0.000001 -0.000003 0.740026 -4.434689 11.877437 16.076730 27.536971 53.652956 0.000009 25.071008 0.000013 -7.233508 -0.436183 6.991352 -11.045813 -3.093618 -7.238203 11.099016 -20.840459 2.639051 0.749670 -2.065196 -4.656682 -0.000002 -0.000000 -0.000001 -4.128573 3.508250 36.269595 0.489752 -2.567846 21.592482 0.005388 -0.274308 2.251421 0.000002 0.000000 0.000002 -70.428601 -6.429429 19.996186 93.498098 5.846220 -0.481412 -15.236028 2.326858 -11.541280 -0.000016 -0.000005 -0.000002 0.000000 0.000002 0.000000 -72.826564 0.432323 -14.129363 91.461895 -7.509981 -2.318936 -13.128483 -3.541921 8.693419 -0.000049 0.000000 0.000000 0.000000 0.000000 0.000000 
0.064277 55.686394 -24.226170 -3.622809 -2.265279 -1.097709 0.407022 0.217946 0.542699 0.673026 0.487473 1.098053 0.673466 0.488037 1.097561 1.278882 0.177316 -0.398672 -12.628732 0.498354 -0.062415 -0.000001 0.000000 -0.000000 0.614123 5.508169 -10.003393 13.269731 -36.066862 -59.310439 -0.000005 -20.418287 -0.000017 -7.452947 17.690765 -12.707597 -2.073054 -0.134867 -39.164537 0.433131 2.407851 -20.391856 -0.000003 0.000001 0.000001 -0.000001 -0.000001 -0.000000 -1.464556 3.864019 4.840731 14.723479 36.922674 -9.169882 8.820974 23.951713 -2.752865 -0.000002 -0.000000 0.000003 0.742610 -4.441250 11.913453 16.109126 27.535727 53.627281 0.000007 25.089441 0.000011 -7.274124 -0.416559 6.900195 -11.069288 -3.048761 -7.250514 11.099010 -20.840468 2.639024 0.749591 -2.064942 -4.656677 -0.000001 0.000000 -0.000001 -4.125742 3.484709 36.338556 0.490212 -2.569048 21.603006 0.005369 -0.273608 2.245680 0.000003 -0.000002 -0.000004 -70.410535 -6.446217 20.016243 93.504354 5.849053 -0.501061 -15.241758 2.328489 -11.542672 -0.000014 0.000003 0.000003 0.000000 -0.000000 0.000000 -72.821332 0.418044 -14.128543 91.455058 -7.511734 -2.315253 -13.126114 -3.524802 8.680014 -0.000004 -0.000002 0.000001 0.000000 -0.000002 0.000000 
0.063400 55.679428 -24.226406 -3.629495 -2.273673 -1.095922 0.401561 0.216208 0.544565 0.663781 0.484569 1.101745 0.664217 0.485135 1.101260 1.298639 0.158508 -0.401647 -12.375253 0.410708 -0.090829 0.000001 -0.000000 -0.000000 0.614411 5.511215 -10.007149 13.307135 -36.052085 -59.283890 -0.000014 -20.467968 0.000002 -7.429527 17.810635 -12.811491 -2.075616 -0.138163 -39.164110 0.444917 2.439318 -20.670751 -0.000000 -0.000005 -0.000007 -0.000001 -0.000000 -0.000001 -1.446194 3.893054 4.875867 14.724124 36.923258 -9.170418 8.825556 23.959911 -2.755491 -0.000003 0.000001 0.000003 0.741810 -4.447175 11.901702 16.104071 27.524645 53.659653 0.000004 25.102337 -0.000025 -7.256513 -0.472694 6.888303 -11.047991 -3.092893 -7.224354 11.099004 -20.840464 2.639021 0.749760 -2.065472 -4.656621 0.000001 -0.000001 -0.000001 -4.124888 3.480915 36.347579 0.489583 -2.567452 21.588934 0.005367 -0.273690 2.246357 -0.000001 0.000001 -0.000000 -70.407953 -6.450413 20.024021 93.519223 5.849840 -0.503886 -15.247556 2.330330 -11.547744 -0.000025 -0.000000 0.000001 -0.000000 -0.000000 -0.000000 -72.826182 0.430665 -14.098801 91.465433 -7.510303 -2.330855 -13.121125 -3.551034 8.695122 -0.000033 -0.000003 -0.000001 -0.000000 0.000000 -0.000000 
0.062194 55.663925 -24.226902 -3.643715 -2.275061 -1.087306 0.397084 0.214833 0.548943 0.657301 0.481759 1.107746 0.657744 0.482290 1.107275 1.322309 0.137323 -0.430214 -12.010661 0.282064 -0.106115 -0.000001 -0.000000 0.000000 0.617010 5.518427 -10.040794 13.381703 -36.075574 -59.216231 -0.000000 -20.526826 -0.000005 -7.454376 17.814303 -12.800202 -2.081752 -0.143974 -39.175960 0.441661 2.430658 -20.593992 -0.000001 -0.000000 0.000005 -0.000000 0.000001 0.000001 -1.493234 3.817564 4.813656 14.722252 36.921540 -9.168831 8.821449 23.952514 -2.753139 0.000001 -0.000000 0.000001 0.742807 -4.448022 11.915758 16.270803 27.567651 53.553898 0.000001 25.248768 -0.000003 -7.345082 -0.472633 6.829057 -11.067527 -3.055328 -7.235730 11.099022 -20.840464 2.639045 0.750688 -2.097007 -4.660578 -0.000003 0.000000 -0.000000 -4.120941 3.485640 36.310771 0.489235 -2.566559 21.580971 0.005273 -0.271286 2.226618 -0.000000 0.000002 0.000004 -70.416477 -6.437804 20.013194 93.541005 5.845666 -0.480043 -15.252637 2.332894 -11.557816 -0.000029 -0.000015 -0.000005 -0.000000 -0.000002 -0.000000 -72.830232 0.474943 -14.019006 91.494496 -7.459263 -2.371365 -13.112089 -3.693467 8.735822 -0.000020 -0.000007 -0.000000 0.000000 0.000000 -0.000000 
0.061005 55.662758 -24.228657 -3.657343 -2.278887 -1.082874 0.390272 0.215039 0.556204 0.646014 0.482131 1.119442 0.646469 0.482648 1.118978 1.380028 0.115221 -0.470286 -11.624319 0.127804 -0.094823 0.000000 -0.000000 -0.000000 0.620414 5.527410 -10.084727 13.381553 -36.076188 -59.217590 -0.000020 -20.480548 -0.000003 -7.477656 17.752941 -12.769853 -2.077323 -0.139877 -39.166863 0.432571 2.406370 -20.378737 0.000003 -0.000001 0.000001 -0.000001 -0.000001 -0.000004 -1.491640 3.819701 4.824111 14.727011 36.925966 -9.172800 8.817393 23.945375 -2.750811 -0.000000 0.000001 -0.000001 0.740381 -4.449476 11.881453 16.167650 27.486168 53.656959 -0.000001 25.166259 0.000010 -7.280917 -0.481440 6.854848 -11.034408 -3.109829 -7.256594 11.103262 -20.868299 2.638067 0.748348 -2.059931 -4.656841 0.000001 -0.000001 0.000001 -4.109703 3.470532 36.307254 0.490027 -2.568537 21.598598 0.005331 -0.272869 2.239617 0.000005 0.000000 0.000001 -70.402434 -6.428771 20.019698 93.543689 5.850118 -0.482192 -15.255016 2.332887 -11.555599 -0.000052 0.000009 -0.000001 -0.000000 0.000002 0.000000 -72.822063 0.480076 -14.017903 91.498553 -7.460112 -2.371903 -13.111866 -3.689234 8.734624 0.000004 0.000002 0.000002 -0.000000 -0.000000 -0.000000 
0.059510 55.669014 -24.231194 -3.672641 -2.280072 -1.071763 0.386961 0.213260 0.559945 0.640413 0.478264 1.124613 0.640865 0.478781 1.124155 1.453935 0.097909 -0.508781 -11.222810 0.015165 -0.131042 0.000000 -0.000000 0.000000 0.622740 5.536065 -10.114712 13.281053 -36.040285 -59.284171 0.000004 -20.364786 0.000010 -7.384621 17.737750 -12.867037 -2.084727 -0.146876 -39.181240 0.434016 2.410255 -20.413129 -0.000000 0.000001 0.000006 -0.000001 -0.000002 0.000002 -1.502304 3.801700 4.831924 14.724201 36.923364 -9.170477 8.810898 23.933693 -2.747105 -0.000001 -0.000000 0.000002 0.739627 -4.452961 11.870587 15.937208 27.353227 53.804672 0.000011 24.967227 -0.000004 -7.114425 -0.474070 7.020780 -11.037769 -3.102988 -7.260349 11.099006 -20.840475 2.639026 0.748656 -2.061908 -4.656939 0.000000 -0.000000 0.000000 -4.121708 3.483523 36.322181 0.489310 -2.566771 21.582874 0.005281 -0.271289 2.226678 -0.000002 -0.000003 0.000001 -70.375571 -6.409417 20.019821 93.528492 5.852471 -0.484457 -15.253440 2.331118 -11.550965 -0.000040 0.000009 0.000004 -0.000000 -0.000000 -0.000000 -72.806504 0.476141 -14.050692 91.493294 -7.478836 -2.360955 -13.116024 -3.633574 8.719593 -0.000024 -0.000000 0.000002 -0.000000 -0.000000 0.000000 
